<mxfile host="app.diagrams.net" agent="Mozilla/5.0 (Windows NT 10.0; Win64; x64) AppleWebKit/537.36 (KHTML, like Gecko) Chrome/134.0.0.0 Safari/537.36 OPR/119.0.0.0" version="27.1.6">
  <diagram id="C5RBs43oDa-KdzZeNtuy" name="Page-1">
    <mxGraphModel dx="1372" dy="812" grid="1" gridSize="10" guides="1" tooltips="1" connect="1" arrows="1" fold="1" page="1" pageScale="1" pageWidth="827" pageHeight="1169" math="0" shadow="0">
      <root>
        <mxCell id="WIyWlLk6GJQsqaUBKTNV-0" />
        <mxCell id="WIyWlLk6GJQsqaUBKTNV-1" parent="WIyWlLk6GJQsqaUBKTNV-0" />
        <mxCell id="xxnMADDkWjs8ncmVfz0i-4" value="" style="edgeStyle=orthogonalEdgeStyle;rounded=0;orthogonalLoop=1;jettySize=auto;html=1;" edge="1" parent="WIyWlLk6GJQsqaUBKTNV-1" source="xxnMADDkWjs8ncmVfz0i-0" target="xxnMADDkWjs8ncmVfz0i-1">
          <mxGeometry relative="1" as="geometry" />
        </mxCell>
        <mxCell id="xxnMADDkWjs8ncmVfz0i-9" style="edgeStyle=orthogonalEdgeStyle;rounded=0;orthogonalLoop=1;jettySize=auto;html=1;" edge="1" parent="WIyWlLk6GJQsqaUBKTNV-1" source="xxnMADDkWjs8ncmVfz0i-0" target="xxnMADDkWjs8ncmVfz0i-8">
          <mxGeometry relative="1" as="geometry" />
        </mxCell>
        <mxCell id="xxnMADDkWjs8ncmVfz0i-0" value="See reservation List" style="rounded=1;whiteSpace=wrap;html=1;" vertex="1" parent="WIyWlLk6GJQsqaUBKTNV-1">
          <mxGeometry x="350" y="30" width="116" height="40" as="geometry" />
        </mxCell>
        <mxCell id="xxnMADDkWjs8ncmVfz0i-17" style="edgeStyle=orthogonalEdgeStyle;rounded=0;orthogonalLoop=1;jettySize=auto;html=1;" edge="1" parent="WIyWlLk6GJQsqaUBKTNV-1" source="xxnMADDkWjs8ncmVfz0i-1" target="xxnMADDkWjs8ncmVfz0i-12">
          <mxGeometry relative="1" as="geometry" />
        </mxCell>
        <mxCell id="xxnMADDkWjs8ncmVfz0i-1" value="Change Reservation Date" style="rounded=1;whiteSpace=wrap;html=1;" vertex="1" parent="WIyWlLk6GJQsqaUBKTNV-1">
          <mxGeometry x="140" y="150" width="116" height="40" as="geometry" />
        </mxCell>
        <mxCell id="xxnMADDkWjs8ncmVfz0i-18" style="edgeStyle=orthogonalEdgeStyle;rounded=0;orthogonalLoop=1;jettySize=auto;html=1;" edge="1" parent="WIyWlLk6GJQsqaUBKTNV-1" source="xxnMADDkWjs8ncmVfz0i-8" target="xxnMADDkWjs8ncmVfz0i-12">
          <mxGeometry relative="1" as="geometry" />
        </mxCell>
        <mxCell id="xxnMADDkWjs8ncmVfz0i-8" value="Cancel Reservation" style="rounded=1;whiteSpace=wrap;html=1;" vertex="1" parent="WIyWlLk6GJQsqaUBKTNV-1">
          <mxGeometry x="550" y="150" width="116" height="40" as="geometry" />
        </mxCell>
        <mxCell id="xxnMADDkWjs8ncmVfz0i-12" value="End" style="ellipse;whiteSpace=wrap;html=1;" vertex="1" parent="WIyWlLk6GJQsqaUBKTNV-1">
          <mxGeometry x="354" y="430" width="120" height="30" as="geometry" />
        </mxCell>
      </root>
    </mxGraphModel>
  </diagram>
</mxfile>
